Coordinates

Units are S.I. units (second, meters, Newtons, ...)
If the header above contains a line with 'inDegrees', this indicates whether rotational values are in degrees (yes) or radians (no).

inDegrees=no
nColumns=21
nRows=17
DataType=double
version=3
OpenSimVersion=4.6-2026-03-31-d6972f9e6
endheader
time	/jointset/ground_pelvis/pelvis_tilt/value	/jointset/ground_pelvis/pelvis_list/value	/jointset/ground_pelvis/pelvis_rotation/value	/jointset/ground_pelvis/pelvis_tx/value	/jointset/ground_pelvis/pelvis_ty/value	/jointset/ground_pelvis/pelvis_tz/value	/jointset/hip_r/hip_flexion_r/value	/jointset/hip_r/hip_adduction_r/value	/jointset/hip_r/hip_rotation_r/value	/jointset/walker_knee_r/knee_angle_r/value	/jointset/patellofemoral_r/knee_angle_r_beta/value	/jointset/ankle_r/ankle_angle_r/value	/jointset/subtalar_r/subtalar_angle_r/value	/jointset/hip_l/hip_flexion_l/value	/jointset/hip_l/hip_adduction_l/value	/jointset/hip_l/hip_rotation_l/value	/jointset/walker_knee_l/knee_angle_l/value	/jointset/patellofemoral_l/knee_angle_l_beta/value	/jointset/ankle_l/ankle_angle_l/value	/jointset/subtalar_l/subtalar_angle_l/value
147.496	-0.1812277708451177	-0.05780803109608874	-0.02730563211443499	1.308689577636967	0.9195957322689446	-0.3128382041168302	0.5977107546716813	0.07150461465293335	-0.03881028826822914	0.4833805880236827	0.4833805869982128	0.03982457031656527	-0.1814515405771068	0.1143203234888908	-0.1598455358304425	-0.006162834619849912	1.135029699852337	1.135029699819365	-0.5682843320658516	-0.3959660534581632
147.5	-0.1799146885610253	-0.06242135143581286	-0.03066909997432603	1.308280721873344	0.9164348750539355	-0.312894809912978	0.6039010047173043	0.07689082811209372	-0.0397196882024607	0.5202452652117637	0.5202452641005039	0.05224557156303568	-0.1905426492999043	0.1329671491930832	-0.1683026135661295	-0.00620481604087096	1.169019171226651	1.169019171378644	-0.5566346560710491	-0.4010332095807172
147.504	-0.1786979802044759	-0.06708433939329381	-0.03423592368951335	1.30784525817197	0.9133652415612102	-0.3129243018337498	0.6094618284854841	0.08236136292552301	-0.04077165645297288	0.5561983383294402	0.5561983371709089	0.06608171731089717	-0.1982069772427196	0.151960712988772	-0.1767459066283843	-0.005956822273165126	1.202017695643341	1.202017695986282	-0.5444017625050167	-0.4053442844253196
147.508	-0.1775526373516614	-0.07171102621448702	-0.03793757092467722	1.307389525578903	0.9104201216142035	-0.3129271380624373	0.614143173324053	0.08780822445151433	-0.04189349358761359	0.5908114456204414	0.5908114444499191	0.08117428565273031	-0.2044322660706396	0.1712418066959717	-0.185041591719499	-0.005390573197042346	1.233881975121603	1.233881975658829	-0.5316432613106363	-0.4089705904346798
147.512	-0.1764491907312061	-0.07620958520404202	-0.04170244327473661	1.306920467433371	0.9076322185233168	-0.3129048996937323	0.6176996855438388	0.09311648161771997	-0.04301256602831457	0.6236817740103958	0.6236817728581051	0.09734099644172133	-0.2092370090958993	0.1907424922457485	-0.193044922191084	-0.004486074874538608	1.264467712991758	1.264467713722737	-0.5184207284055891	-0.4119833448896577
147.516	-0.1753555897743132	-0.0804845918793471	-0.04545781414076677	1.30644543041796	0.9050327601083998	-0.3128602251429446	0.6198988348694413	0.09816724278105846	-0.04405896161112314	0.6544404172930006	0.6544404161834254	0.1143818315392165	-0.2126663575612569	0.2103883721224907	-0.2006040148056581	-0.003232816340358332	1.293632635592145	1.293632636511249	-0.5047986928834245	-0.4144503453042617
147.52	-0.1742391314751036	-0.08443986846877891	-0.04913174480956507	1.305971965958087	0.9026506631467504	-0.3127966953259292	0.6205283216124936	0.1028413160237942	-0.04496780322403386	0.6827593066352776	0.6827593055874808	0.1320843353514024	-0.2147882949188396	0.2301009682168701	-0.2075646044926888	-0.001630612144162731	1.32123953227798	1.321239533373705	-0.4908435265701757	-0.4164329820142151
147.524	-0.1730683172986929	-0.08798180486140186	-0.05265490578209653	1.305507643030937	0.9005117939505208	-0.3127186764478797	0.6194024349812197	0.1070234208867474	-0.04568118538881374	0.7083565036346524	0.7083565026631524	0.1502281718544873	-0.2156902183787785	0.2498000577120215	-0.2137755496527038	0.0003099987064503315	1.347159138967542	1.347159140222566	-0.4766223822477657	-0.4179838371637137
147.528	-0.1718145900064123	-0.09102295809192461	-0.05596222111145666	1.305059877404501	0.8986383528634174	-0.3126311327471594	0.6163671990962684	0.1106066950214835	-0.0461497438757017	0.7309997911859955	0.7309997903017986	0.1685888708941865	-0.2154759259293647	0.2694059303415351	-0.2190947393218284	0.002567890263789379	1.371272751823585	1.371272753215655	-0.4622022151524963	-0.4191449483493
147.532	-0.1704540250839154	-0.09348566082889898	-0.05899424541457095	1.304635776997948	0.8970483869482436	-0.3125394265200626	0.6113043771611943	0.1134971325338069	-0.04633391563654772	0.7505086548153037	0.7505086540269132	0.1869408746421565	-0.2142628396720921	0.2888417137548176	-0.2233949469657706	0.005112142196466212	1.393474552094326	1.393474553597654	-0.4476487555690665	-0.4199465676622248
147.536	-0.1689690876925179	-0.09530536732280499	-0.06169820362867433	1.304242001248216	0.8957554218661377	-0.312449122279117	0.6041345116877258	0.1156175907868552	-0.04620494153037665	0.7667548439792309	0.76675484329351	0.2050600743257178	-0.2121792268873857	0.3080359555441973	-0.2265691817511498	0.007903560795876013	1.41367366523086	1.413673666817677	-0.4330252626964493	-0.4204061846956854
147.54	-0.1673503698213903	-0.09643353181293517	-0.064028678184088	1.303884638416289	0.8947682212294075	-0.3123658048826402	0.5948189579607289	0.1169111262182921	-0.0457455849145597	0.7796616663882058	0.7796616658108907	0.2227259354252147	-0.2093613391721482	0.3269253436654501	-0.2285352143310042	0.01089681842052774	1.431795881736626	1.431795883378783	-0.418391112789405	-0.4205278806975937
147.544	-0.1655979969994957	-0.09683987355368849	-0.06594797843757658	1.303569110498727	0.894090704606712	-0.3122949150558112	0.5833605991521801	0.1173435365965496	-0.04495046572306076	0.7892020935867734	0.7892020931225225	0.2397231916429112	-0.2059506068314296	0.3454571013847101	-0.2292390705145113	0.01404291901062584	1.447784849805992	1.447784851476579	-0.4038005349261843	-0.4203024143086432
147.548	-0.1637224280403518	-0.09651389544102974	-0.06742623641043201	1.303300111701802	0.893722045958348	-0.3122416055406959	0.5698030127992394	0.1169049968286085	-0.04382593402201527	0.795395790859401	0.7953957905114857	0.2558431234477496	-0.2020910062959348	0.3635906354744221	-0.2286573143468174	0.01729168957910654	1.461602581057607	1.461602582732406	-0.3893017828621741	-0.4197083693574774
147.552	-0.1617445800882633	-0.09546553659291419	-0.068441259919908	1.303081578238785	0.8936569430211447	-0.3122106232314182	0.5542281662175205	0.11561065189876	-0.04238949314195036	0.7983052879853832	0.7983052877552295	0.2708845624831141	-0.1979265230128089	0.3812983179587824	-0.2267979616312985	0.02059410456502226	1.473229247009093	1.473229248667598	-0.3749368015766616	-0.4187143506973002
147.556	-0.1596953350622212	-0.09372489004957099	-0.06897817702360948	1.302916683563044	0.8938860299844242	-0.3122062218450998	0.5367528886605475	0.113500072329601	-0.04066883577969581	0.7980315414416057	0.798031541328305	0.284654800762067	-0.1935985477260009	0.3985654565660062	-0.2236999491151867	0.02390430938556873	1.482662330237658	1.482662331863551	-0.3607413222297102	-0.4172820201045291
147.56	-0.157614490684551	-0.09134098064973169	-0.06902892267183706	1.30280785364039	0.8943964049713619	-0.3122321068827416	0.5175243663100496	0.1106355644703287	-0.03870055698882133	0.7947090991113992	0.7947090991111989	0.2969705161281229	-0.189243123042935	0.4153895107701516	-0.2194311902995262	0.0271812124124655	1.489915204040781	1.489915205622083	-0.3467453501988058	-0.4153697859881449
